<?xml version="1.0" encoding="utf-8"?>
<!-- Generator: Adobe Illustrator 22.1.0, SVG Export Plug-In . SVG Version: 6.00 Build 0)  -->
<svg version="1.1" id="レイヤー_1" xmlns="http://www.w3.org/2000/svg" xmlns:xlink="http://www.w3.org/1999/xlink" x="0px"
	 y="0px" viewBox="0 0 900 939" style="enable-background:new 0 0 900 939;" xml:space="preserve">
<style type="text/css">
	.st0{fill:none;stroke:#999999;stroke-miterlimit:10;}
</style>
<path class="st0" d="M0.6,548.4c8.7-12,17.2-24,26.1-35.8c2.4-3.1,5.9-5.5,9.2-7.6c6.3-3.9,12-8,15.4-15.1c1.7-3.6,5.6-6.5,9.1-8.7
	c13.4-8.6,26.4-17.8,41.3-23.7c14.9-5.8,29.7-11.9,44.6-17.9c9.9-4,19.8-8.2,29.8-12.2c11.5-4.5,23.1-6.8,35.4-3.1
	c10,3,19.6,2.4,29.6-1.2c11.7-4.3,24.3-4.8,36.7-4.8c2.5,0,5-0.1,7.4-0.6c9.4-1.9,12.6-8.3,8.2-17.1c-8.6-17.4-15.2-35.5-21.4-53.8
	c-3.8-11.3-9.3-22-12.8-33.3c-3-9.7-7.4-19.3-6.7-30.1c0.3-4.1-1-8.5-7.1-11.4c8.5-2.5,15.9-4.7,23.2-6.8c0.6-2.3,1.4-5.1,2.2-8.2
	c0.2,0.1-0.5-0.2-0.4-0.2c0-1.9,0-3.4,0-5.2c0,0,0.9-0.1,1.7-0.2c-1.1-1.4-0.4-4-0.6-4.3c-3.1-2.8,0.1-5.6-0.2-8.3
	c-0.1-1.1,0.3-2.2,0.6-3.9c0.2,0.1-0.7-0.2-1.6-0.5c0.4-0.1,0.8-0.2,1.3-0.3c-0.4-1.9-0.9-3.8-1.4-6c0.3-0.5,1.4-1.5,1.5-2.6
	c0.4-3,1.8-6.5-2.7-8.9c1.7-0.5,3-0.9,4.8-1.4c-1.2-0.7-2.5-1.1-2.6-1.5c-0.1-2.5-0.5-5.2,0.2-7.5c2.9-9.4-2.5-16.4-6-24.4
	c2.6-2.8,3.2-23.3-0.2-27.2c4.7-3,3-8.5,5.1-12.7c1.5-3.1,3.2-6.1,4.6-9.3c1.2-2.6,1.7-5.1-0.7-7.6c-1.1-1.2-1.3-3.2-1.9-4.9
	c6.4-1.4,10.2-7.8,10-16.4c-0.1-3.2-0.4-6.7,4.2-8.5c1.6-0.6,1.5-5.5,2.2-8.3c0.1,0.1,1.2,0.8,2.4,1.7c1.2-3.9,2.4-7.4,3.7-11.4
	c0.5,0.1,2,0.6,4.6,1.4c-0.4-2.7-1.5-5.1-0.7-6.7c1.4-2.7,4-4.8,5.9-7.3c2.1-2.7,3.8-5.7,6.1-8.3c0.7-0.8,2.4-0.6,3.1-0.7
	c6.3-6,12.3-12.2,18.8-18c11.1-9.9,23.4-18.2,37.1-23.9c13.5-5.7,27.8-9.1,42.5-11.3C428,0,443.8,0.3,459.5,1.9
	c8.6,0.8,17.1,3.8,25.4,6.6c8,2.6,16,5.6,23.3,9.6c7.5,4.1,14.4,9.3,21.1,14.6c11,8.7,22.5,17.1,32.3,27
	c10.7,10.8,19.8,23.1,25.2,37.7c3.7,10.1,8.6,19.8,11.4,30c3,10.9,4.7,22.2,6.1,33.4c1.8,15.2,2.9,30.4,3.9,45.7
	c0.5,8.5,0,17.1,0.3,25.6c0.1,1.7,1.4,3.4,2.2,5.1c1.9-0.9,4.3-1.4,5.5-2.9c4.5-5.5,8-6.6,12.2-3.4c-1.6,1.6-4.8,3.4-4.6,4.7
	c0.6,4.2-2.3,3.3-4.3,3.9c-2.4,0.6-4.9,1.1-7.9,1.8c0,8.7,0,17.8,0,27c-0.5,0.1-1,0.1-1.4,0.2c-0.2-1.4-0.6-2.8-0.5-4.1
	c1.1-12.3-1.9-23.9-5.3-35.6c-1.9-6.4-2.5-13.1-3.7-19.7c-1.5-7.9-3.9-15.7-4.3-23.6c-0.2-4.3-4.7-8.9,0-13.4c0.7-0.7-0.1-3-0.2-4.6
	c0.6,0,1.3,0.1,2.1,0.1c0.3-0.3,0.5-0.7,0.8-1c-1.6-1.3-3.1-2.7-4.9-4.2c-0.7-1.4-1.6-3.3-2.5-5.1c0.8-1.4,1.9-3.2,2.7-4.7
	c0.4,0.6,1.5,1.8,2.6,3.3c0.9-2.9,1.9-5.3,2.3-7.8c0.1-0.6-1.5-2-2.4-2.1c-2.1-0.3-4.3-0.1-6.9-0.1c0.6-3.8,1.1-7.1,1.7-11.2
	c-1.3-0.1-3.3-0.3-6.5-0.7c1.1-1.2,2.1-2.2,2.9-3.4c0.9-1.3,1.6-2.8,1.8-3.2c-1.3-3.1-2.3-5.3-3.2-7.6c-1.1-3-2-6.1-3-9.2
	c-0.9-2.9-1-7.7-2.7-8.4c-3.4-1.4-4.7-3.5-4.5-6.3c0.4-6.7-4.5-10.9-7.4-15.9c-3.5-6-8.5-11.2-12.9-16.6c-2.7-3.3-5.6-6.5-8.5-9.6
	c-3.7-4-7.5-8-11.4-11.9c-0.6-0.6-1.7-1.1-2.6-1.2c-2.5-0.2-5.4,0.7-6-3.2c-0.1-0.3-1.9-0.3-2.9-0.5c-0.3,0.4-0.7,0.8-1,1.2
	c1.6,0.4,3.2,0.8,4.9,1.1c-0.4,0.5-0.9,0.9-1.3,1.4c-4.2-1.9-4.5-2.4-5-8.7c-4.1-1.7-8.1-2.7-11.4-4.8c-3.8-2.5-4.2-2.9-7.8,0
	c-1.8-1.5-3.6-3-6-4.9c0,0,0.7-1.4,1.7-3.3c-6.6,0-13,0-19.3,0c-0.1,0.5-0.1,1-0.2,1.5c-1.5-2.2-3-4.5-4-5.9
	c-4.4-0.2-8.2-0.4-12.2-0.6c0,0,0.2-0.8,0.4-1.3c-1.5-0.7-2.9-1.3-4.3-1.9c-0.7,1.6-1.4,3.2-2.4,5.5c-1.5-1.9-2.6-3.4-3.8-4.9
	c-1.5,0.9-3.5,2-5.4,3.2c0-2.3,0-4.2,0-6.8c-2,1.4-3.8,2.6-5.8,3.9c-0.1-0.3-0.5-1.1-1.4-3.4c-0.7,2-1.1,3.4-1.8,5.5
	c-3.2-7.6-3.2-7.6-8.4-0.8c-0.6-1-1.2-2-2-3.1c-1.4,0.7-2.8,1.4-4.2,2.1c-1.1-5-1.2-5-7.4-1.9c0.5,1,0.9,2.1,1.3,2.9
	c-3.7,3.5-5.5,1.1-8-2.7c-0.5,1.5-1.1,3-1.7,4.6c-2.7-1.8-5.8-1.9-9.1,1.7c-1,1.1-5.2-0.4-7.7-1.3c-1.5-0.5-2.7-1.9-4.8-2.4
	c0.8,1.7,1.7,3.4,2.5,5.1c-0.2,0.1-0.4,0.2-0.6,0.3c-0.8-0.9-1.5-1.8-2.3-2.7c-0.3,0.2-0.6,0.3-0.9,0.5c0.7,1.5,1.3,3,2.4,5.4
	c-1.6-1.4-2.5-2.5-3.6-2.9c-1-0.4-2.8-0.6-3.2-0.1c-1.7,2.1-2.8,2.8-4.4-0.1c-0.3-0.5-3.6-0.2-3.7,0.2c-0.6,2.5-1.6,4.3-4.5,4
	c0,3.6-1.9,1.3-3.4,1.4c-2.3,0.2-5.2-0.8-6.7,2.9c-0.8,1.8-4.5,2.2-6.7,3.5c-2.8,1.7-5.4,3.7-8.1,5.6c-0.7,0.5-1.2,1.3-1.9,1.4
	c-6.8,1.4-10.8,6.9-15.2,11.2c-13,13.1-23.2,28.3-30.8,45.2c-4.8,10.6-10.3,21-14.3,32c-4.1,11.2-6.7,22.9-6.8,35.1
	c0,6-2.1,12.1-1.5,18.1c1.1,11.8,3.4,23.4,5,35.1c0.5,3.9,0.5,7.9,0.8,11.9c1.2,16.6,2.1,33.2,0.4,49.8c-0.2,1.7,0.3,3.4-0.2,5.3
	c-0.4-0.9-0.7-1.9-1.1-2.8c-1.2-3.2-3-5.9-6.9-5.8c-3.2,0.1-8.1,4.8-8.1,8.1c0,3.9,0.2,7.9,1.1,11.7c1.5,6.2,3.1,12.4,5.5,18.2
	c3.2,7.8,7.3,15.3,10.9,23c1.5,3.2,2.6,6.6,3.9,9.9c3.9,9.9,7.9,19.9,11.8,29.8c0.8,1.9,1.7,4,1.6,6c-0.3,6.7,3,11.4,7.2,16
	c2,2.2,3.8,4.8,4.7,7.5c3.4,9.7,6.3,19.5,9.8,30.5c-5.2-2-10.5-2.9-14.5-5.7c-5.1-3.5-8.1-5.5-13.4,1c-4.4,5.5-9.7,4.7-14.1,3.3
	c-6.3-2-12.3-3.2-18.6-1.4c-8.5,2.4-17.5,2.7-25.3,8.4c-3.5,2.6-9,2.6-13.6,3.5c-1,0.2-2.5-0.8-3.3-1.7c-7.3-8.7-15.8-9.6-26-5.3
	c-6.7,2.8-14,4-20.7,6.7c-9,3.6-17.6,8.4-26.5,12.1c-12,5-23.9,10.3-36.3,13.9c-8.5,2.4-15,7.1-21.8,12c-4.5,3.3-10.1,4.9-14.6,8.1
	c-5.8,4.1-11.1,9-16.5,13.6c-6.1,5.2-12.2,10.5-18.3,15.7c-10.3,8.6-22.4,15.2-28.2,28.3c-0.8,1.8-3.4,2.7-5.2,4
	C1.6,549.7,1.1,549,0.6,548.4z M702.4,429c-1.4,0.6-2.8,1.5-4.3,1.6c-4.6,0.5-6.9,3.4-8.1,7.4c-1.3,4.1-3.2,6.4-7.9,4.1
	c-1.8-0.9-4.1-1.1-6.2-1c-6.7,0.3-12.4-2.2-17.8-6c-4.6-3.2-9.4-6-14.2-9c-0.8-0.5-1.9-0.9-2.8-0.8c-5.7,1.1-11.4,2.5-17.1,3.4
	c-2.8,0.5-5.8,0-8.7,0.3c-1.7,0.2-3.3,1.1-6,2c-4.9-1.9-7.7-10.1-16.4-8.6c-2.2,4.8-4.6,10.1-7.2,15.5c-1.2,2.5-2.7,4.8-4,7.2
	c-3.2,5.8-3,11.8-2.4,18.2c1.2,14.4-0.4,28.6-3.1,42.8c-1.2,6.3-0.8,12.9-2.6,19c-3.8,12.7-8.4,25.3-13.2,37.7
	c-3.2,8.3-6.8,16.7-11.4,24.3c-7.2,11.8-15.1,23.3-23.4,34.4c-9.6,12.9-19.8,25.3-30,37.7c-2.7,3.3-6.2,5.8-9.5,8.8
	c-0.7-2.4-1.3-4.8-2-7.2c1.3-0.7,2.6-1.5,4-2.3c-0.5-0.6-1-1.3-1.5-1.9c4.1-3.2,8.8-5.8,12.1-9.7c1.9-2.2,5.8-3.9,5.7-5.4
	c-0.5-4.1,2.7-6.5,3.1-9.7c0.7-6.1,3.9-10.5,7.7-14.8c5-5.7,9.9-11.5,14.7-17.3c0.8-1,1.3-2.3,2.1-3.4c2.2-2.8,2.7-6.6,6.4-8.6
	c2-1,3.1-4.2,4-6.6c2.1-5.1,6.9-8.6,8.1-14.2c0.2-0.9,0.6-1.8,0.9-2.7c0.7-1.7,2.1-3.5,1.9-5.1c-1-6.1,1.3-11.5,3.4-16.9
	c0.6-1.7,1.7-3.3,2-5c1.5-7.2,6.6-13.1,6.9-20.7c0-1.1-0.9-2.3-0.9-2.4c1-1.8,2-2.9,2.2-4.1c0.8-6.2,1.5-12.3,2-18.5
	c0.2-3.1-0.4-6.3-0.3-9.5c0.1-4.6,0.5-9.2,0.8-14.1c-2.6,2.5-5.5,5.4-8.3,8c0.9-3.4,1.9-7.5,3-11.8c0.6,0.9,1.2,1.9,1.9,2.9
	c0.5-0.3,1-0.6,1.4-0.9c-1.5-2.3-2.9-4.6-4.1-6.5c5.1,0.6,8.5-2.2,8-7.9c0.9,0.7,1.6,1.1,2.2,1.5c1.2-3.1,2.4-6.4,3.7-9.9
	c-1.1,0.1-1.9,0.1-2.7,0.2c-0.1-0.2-0.2-0.5-0.3-0.7c0.8-0.5,1.5-0.9,2.8-1.7c-0.2-1-0.5-2.3-0.8-3.5c3.3-1.3,7.9-0.1,8.4-4.9
	c0.2-2.2-1.1-4.7-1.7-6.9c-0.2-0.1,0.5,0.2,1.2,0.5c0.9,0.4,1.8,0.8,2.6,1.2c2-4.9,4.4-9.5,5.9-14.4c1.9-5.9,3.1-12.1,4.8-18.1
	c0.3-1.1,1.2-2,1.9-3l-0.2-0.2c-0.3,4.3-0.5,8.6-0.9,12.9c-0.4,4.4-1.1,8.8-1.7,13.3c2.7,0.6,6.4-1.3,9.4,2.5c1.4-0.3,3.8-0.8,7-1.5
	c2.6,2.4,7.5,2.8,9.5,0.1c1.7,2.7,3,4.5,6.3,1.2c3.4-3.3,6.1-0.6,8.3,2.9c1-1.1,1.8-2,2.7-3c0.9,2.1,0.2,5.9,4.3,2.2
	c1.2-1.1,5.6,1.4,8.5,2.2c1.8,0.5,3.6,1.1,5.9,1.7c0.6,0.5,1.8,1.7,3.8,3.6c-0.4-2.1-0.6-2.8-0.6-3.2c2,0.7,3.9,1.4,5.9,2.1
	c-0.4,0.4-1.1,1.4-2.4,2.9c3.6,0.8,6.7,1.6,9.8,2.3c0.2-0.4,0.3-0.8,0.5-1.2c-0.8-0.6-1.6-1.2-2.4-1.9c0.2-0.3,0.3-0.6,0.5-0.9
	c2.7,1.7,5.4,3.4,8.1,5.1c0.3-0.5,0.6-1,0.9-1.5c-1-0.4-1.9-0.9-2.9-1.3c0.1-0.1,0.2-0.4,0.3-0.4c3.2-1,6.4-2.2,9.7-3
	c3.1-0.8,6.3-1.7,9.4-1.9c1.4-0.1,3,1.2,4.5,1.9L702.4,429z M336.8,505c0.5,2.5,1,5,1.7,7.5c1.5,5.9,3,11.7,4.7,17.5
	c0.3,0.9,1.7,1.4,2.7,2c5.2,2.7,2.8,8.2,4.4,12.3c2.6,6.4,4.6,13.1,6.6,19.8c0.7,2.3,0.8,4.9,1.3,7.8c2.6,0.3,4.9,1.5,3.4,5.4
	c-0.2,0.4,0.6,1.3,1,1.9c1.3,1.9,2.7,3.7,3.7,5.7c3.4,4,7,7.9,10,12.1c4.2,5.9,7.4,12.6,12,18.3c9.8,12,20.2,23.4,30.2,35.2
	c2.2,2.6,5,4.4,6.4,8.3c1.1,2.9,6,4.5,9.5,6.3c3.4,1.7,7.1,2.6,10.5,4.2c1,0.5,1.5,2.1,2.5,3.7c0.7-0.3,2.8-0.8,2.8-1.2
	c-0.1-4.9,2.5-2,4.2-1.6c3.6,0.8,7.4,2.2,9.8-2.2c0.4-0.6,0.3-1.5,0.5-3c-1.7,1.3-2.8,2.1-4.5,3.5c0.9-3.1,1.6-5.5,2.3-8
	c3.5,5.8,5.4,6.6,10.6,3.8c0,2.4,0,4.5,0,7.3c0.3,0,1.7,0,3.5,0c-0.8,1.7-1.5,3-2.3,4.7c-1-0.5-1.8-0.7-2.4-1.1
	c-2.4-1.6-1.9-1.1-3.3,0.9c-1.5,2.2-4.3,4.1-6.9,4.7c-10.3,2.4-20.5,1.7-30.4-2.4c-14.7-6-25.3-16.1-33.1-30
	c-8.1-14.3-17.5-28-25.8-42.2c-11.6-19.8-21.8-40.3-27.9-62.7c-2.6-9.6-5.8-19-8.4-28.5c-0.8-3-0.6-6.2-0.9-9.3
	C335.8,505.3,336.3,505.2,336.8,505z M382.5,240c-0.9,5.4,4.1,7.4,6.6,10.7c2.2,2.9,2.5,5,1.2,7.3c-2.4,0.5-4.5,0.9-7.1,1.4
	c1,1.2,1.6,1.9,2.3,2.7c-0.4,0.3-0.7,0.7-0.9,0.7c-2.2,0-3.7,0.2-4.6,3c-1,3.2-4.2,4.5-7.6,5.4c-4.2,1.1-7.9,4.3-12.1,5.2
	c-7.7,1.6-15.6,2.2-23.6,2.4c14.5-2,28.7-4.7,41.7-15.3c-5.9,1.8-10.6,3.2-15.3,4.6c-0.2-0.3-0.5-0.7-0.7-1c1.2-1.3,2.2-3.5,3.6-3.9
	c5.5-1.4,8.3-5.2,10.3-10c0.3-0.8,1.5-1.2,3.4-2.5c-3.6-3.2-7-6.2-10.4-9.2c-0.6,0.3-1.2,0.5-1.7,0.8c0.2,1.6-0.2,3.5,0.6,4.7
	c3.5,5.3,0.4,9.4-2.4,13.3c-3.8,5.3-7.5,6.5-12.6,4.9c-9.3-3-13.2-8.6-12.6-17.8c0.1-0.9-0.7-1.8-1.1-2.9c-5.3,2.8-11.4,4.5-12,11
	c-6.3,3.7-12.2,7.1-18.1,10.6c-0.3-0.3-0.6-0.7-0.9-1c1.8-2.7,3.6-5.4,5.7-8.6c-1.7,0-2.8,0-4.5,0c0.4-1.3,0.7-2.8,1.4-4
	c7.7-12.7,19.6-19.2,33.7-22.1c3.7-0.8,7.6-1,11.3-1c2.2,0,4.4,1,6.5,2c-19.4-1-39,3-48.8,24.2c1.3-0.8,2.2-1,2.8-1.7
	c7.8-9.6,18.5-13.8,30.3-15.5c5.7-0.8,11.5-0.5,17.2-1.2c1.2-0.2,2.2-2.6,4-4.9c2.3,1.2,5.7,3.2,9.2,5c1.4,0.7,2.9,1.3,4.4,1.9
	C381.8,239.3,382.2,239.7,382.5,240z M135.1,905.4c-10.1-6.5-20.1-13-30.2-19.5c-5.4-3.5-10.9-7.1-16.1-10.9
	c-2.5-1.8-4.7-3.9-6.8-6.1c-11-12.1-24.1-12.2-38.1-6.6c-5.6,2.2-11,4.9-16.1,7.2c1.5-4.9,3-10.5,5.1-15.9
	c1.6-4.3,13.5-8.6,18.5-8.2c7.6,0.7,15.3,1.2,22.9,0.4c3.9-0.4,6.2,0.8,7.7,3.3c8.8,14.8,22.2,23.4,37.5,30.2
	c5.5,2.5,10.7,7.1,14.4,12c2.4,3.2,2,8.6,2.8,13C136.1,904.7,135.6,905,135.1,905.4z M464.5,429.7c-0.1,1.4-0.1,3.1-0.2,4.8
	c-1.8-0.7-4.8-1.1-5.3-2.3c-1-2.9-2.4-2.6-4.5-1.9c-2.3,0.8-5.7,0.3-5.1,4.4c0.1,0.6,0,1.3-0.1,2.4c-2.6-4.9-5.2-9-11.2-4.7
	c-0.3,0.2-1,0.2-1.3,0c-4.9-3.2-8.8-0.7-13.3,1.5c-3.6,1.8-8,1.6-11.8,3c-6.4,2.4-13,3.4-19.8,3c-1-0.1-2.3,0.4-3.1,1.1
	c-2,1.9-3.6,4.2-5.6,6.2c-0.5,0.5-1.7,0.1-2.6,0.1c-0.1-3.7-7.7-0.7-5.7-6.4c0.4-1.2,0.4-2.6,0.6-3.6c1.6-1,4.4-1.8,5.3-3.5
	c2.9-5.6,8.6-4.8,11.7-3.3c5.8,2.7,9.1,0,12.7-2.9c5.3-4.3,10.3-8.9,15.4-13.3c3.3-2.8,11.1-3.6,13.5-1.4c-4.5,1.6-4.7,2.7-1.5,7.6
	c0.8-0.5,1.6-0.9,3.1-1.9c-0.7,2.4-1.1,4-1.3,4.5c1.3,0.2,2.2,0.3,3,0.4c0.7,0,1.4-0.1,2.1-0.2c2.7-0.5,5.6-0.6,8-1.8
	c1.9-0.9,4.8-3.8,4.5-4.7c-1.3-3.7,1.2-5.1,3-6.9c2.5-2.5,4.9-5.4,7.9-6.7c2.1-0.9,5.2,0.7,7.7,1.2c-0.5,4.9-6.4,4.9-6.1,10.3
	c0.1,2.1-6.4,4.1-4.5,7.9c3.5,0,6.4-0.2,9.2,0c3.3,0.2,6.6,0.8,9.7,2.4c-2.5,0.8-5,1.5-7.4,2.3C469.2,428.1,466.6,429,464.5,429.7z
	 M529.5,225.3c3.1,12.3-1.8,17.2-8.3,21.2c-5.7,3.5-10.4,0.1-14.6-3.2c-3.7-2.9-4.6-7.2-3.8-11.6c0.1-0.5,2.3-0.7,3.5-1
	c0.3,0.5,0.5,0.9,0.8,1.4c0.9-2.2,1.7-4.3,3-7.4c-4.3,2-8,3.1-10.9,5.3c-5.1,3.8-5.9,9.1-2.9,15c0.2,0.4,0.5,1.3,0.3,1.4
	c-0.5,0.3-1.2,0.5-1.9,0.6c-3.6,0.3-7.2,0.6-10.8,0.8c-3.3,0.3-3.7-1.9-2.9-4.2c0.8-2.3,2.2-4.4,3.2-6.6s4.6-3.4,2.3-7.1
	c-0.4-0.7,2.3-3.9,4.1-5.1c10.1-6.9,21.3-9.3,33.3-7.6c7,1,14.1,1.9,20.7,4c6.6,2.1,13.5,4.5,18.3,12.4c-4.2-2.8-7.3-4.9-10.4-6.9
	c-0.2,0.2-0.4,0.4-0.7,0.6c2.5,3.4,4.9,6.9,7.9,11.1c-3.3-0.5-5.8-0.8-8.6-1.2c-0.5-1.1-1.2-2.8-2-4.4c-0.3,0.1-0.7,0.2-1,0.4
	c0.2,1.2,0.3,2.4,0.5,3.6c-0.4,0-0.7,0.1-0.8,0c-1.3-1.4-2.9-2.6-3.8-4.3C540.9,227.1,536.4,224.7,529.5,225.3z M857.3,865.9
	c-0.4,3-1,6-1,9.1s-1.2,4.6-4.2,5.2c-2.9,0.5-4.8-0.2-5.5-3.4c-1.6-7.6-3.4-15.3-5.1-22.9c-0.5-2-1.3-3.9-2.7-5.6
	c-0.3,2.3-0.5,4.5-0.8,6.8c-5.6-13-7.4-26.7-18.4-36.5c-0.4,0.4-1.2,1.3-2.1,2.4c-1.2-2.4-2.4-4.7-3.7-7.4c-3.4,2.9-6.4,5.5-9.6,8
	c-0.5,0.4-1.5,0.1-2.3,0.3c-1.8,0.5-4,0.5-5.3,1.6c-3.4,2.9-6.4,5.6-11,0.9c-0.1,2.4-0.2,3.9-0.2,5.4c-0.3,0-0.6,0.1-0.8,0.1
	c-0.3-1.5-0.7-3-1-4.5c-4-0.2-4-0.2-0.2-9.3c2.3,1,4.7,1.9,7.1,3c4.4,2,8.1,0.5,11.1-2.6c4.2-4.4,8-9.2,12.8-14.7
	c1.4,2.8,2.8,6.2,4.8,9.2c1.6,2.5,3.5,5,5.8,6.7c11.1,8.4,18.8,19.5,26.1,31.2c3.5,5.6,8.2,10.4,12.3,15.6c0.8,1,1.8,2,2.2,3.2
	c0.5,1.5,0.8,3.2,0.7,4.8c-0.1,0.5-2.5,1.4-2.8,1.1c-1.2-1.1-1.9-2.6-2.7-4c-0.6-1.1-1-2.4-1.5-3.5C858.5,866,857.9,866,857.3,865.9
	z M702.6,429.1c0.2-2.3,0.3-4.7,0.5-7.7c5.3,3.6,9.7,3.5,14.3,1.9c0.8-0.3,2.6,0,2.7,0.4c1,3.2,4.2,1.5,5.8,2.8
	c2.2,1.8,4.5,2.5,7.8,1.9c-1,1.2-1.6,2.1-2.3,2.9c0.4,0.3,0.8,0.7,1.3,1c2.3-2.9,4.7-5.8,7.1-8.8c0.9,0.1,2.8,0.4,5.7,0.9
	c-1.8,0.5-2.6,0.7-4.9,1.2c5.8,1.3,10.2,2.3,14.7,3.4c1.1,0.3,2.5,0.7,3.2,1.5c1.8,2,3.2,1.4,5.7,1.1c4.5-0.5,9.1,1.1,14.6,2
	c-1.8,1.3-2.5,1.9-3,2.3c2.1,1.5,3.7,3,5.6,4c2.7,1.5,5.8,2.4,8.4,4c1.1,0.7,2.2,2.3,2.4,3.7c0.7,4.6,0.5,4.6,4.7,3.8
	c0.2,0,0.5,0.3,0.7,0.5c1.6,1,3.3,2.1,5.2,3.3c-1.7,0.2-3.7,0.3-7.1,0.6c5.2,2.6,9.1,4.6,11.6,6c0.6,2.8,1,4.8,1.4,6.8
	c-2.3-1.5-5-3.3-7.7-4.9c-3.1-1.8-6.3-3.6-9.5-5.3c-6.5-3.6-12.8-7.4-19.5-10.6c-13.6-6.6-27.5-12.2-43-13
	c-4.8-0.2-9.4-3.1-14.3-4.2C710.7,429.7,706.6,429.5,702.6,429.1C702.4,429,702.6,429.1,702.6,429.1z M460.9,362.5
	c-3.7,2.5-7.6,4.2-11.9,5.4c-1.1,0.3-2.5,2.4-2.4,3.6c0.7,9.7,1.8,19.4,2.7,29.1c0.1,1.2-0.1,2.9-0.8,3.6c-0.6,0.6-2.6,0.4-3.4-0.2
	c-3.5-2.5-7.4-4.5-8-9.7c-0.2-2-1.1-5.6-5.1-3.3c1.6-4.5,3-8.7,4.8-13.8c1.1,1.7,1.5,2.3,1.8,2.9c0.3-0.8,1-1.9,0.8-2.3
	c-0.7-1.2-1.8-2.3-2.9-3.1c-3.5-2.5-2-4.2,0.2-5.7c-1.3-1.5-2.6-2.9-3.8-4.4c-4.9,1.8-10,3.8-15.2,5.4c-4.6,1.3-13.3-6.4-11.2-10.3
	c1.6-2.9,6.1-4.4,9.6-6.1c0.9-0.4,2.7,0.9,3.9,1.6c4.1,2.7,8.2,5.6,12.7,8.6c2.5-2.8,4.6-5.2,7.2-8.2c1.4,2.1,2.3,4.4,4,5.4
	c1.3,0.8,4,0.8,5.4-0.1c3.6-2.3,6.5-5.5,10.1-7.8c4.3-2.7,8.6-0.8,12.8,0.8c-0.5,4.5-2.1,6.9-6.9,5c-0.8-0.3-2.1,1-3.1,1.5
	c-0.2-0.7-0.5-1.4-0.8-2.2c-0.4,0.1-0.8,0.2-1.3,0.3c0.3,1.4,0.6,2.8,0.9,4.2L460.9,362.5z M319.4,214.7c2.1-2.3,4.1-4.6,7-7.8
	c-2.5,0.4-3.9,0.5-6.3,0.9c7.5-5.5,15.1-6.9,23.6-7.6c-1.5,0.9-2.6,1.5-3.8,2.1c0.1,0.3,0.1,0.6,0.2,1c7-0.8,14-1.6,22-2.5
	c-2.4,1.2-3.9,1.9-5.4,2.6c0.3,0.5,0.5,1,0.8,1.6c2.4-1.3,4.8-2.6,7.2-3.8c3.2-1.6,6.3-3.7,9.6-4.2c1.7-0.3,3.9,2.4,6.2,3.9
	c-1.6,0.9-2.8,1.6-4,2.3c2.5,0.4,4.9,0.9,7.4,1.3c4.1-6.9,4.8-7.1,7.7-3.4c-1.1,2.1-1.8,4.1-3,5.6c-0.6,0.8-2.4,0.6-4,1
	c0.4,1.3,0.9,2.9,1.6,5.4c-2.4,0.2-4.7,0.5-7.1,0.7c0-0.1,0-0.2,0-0.3c-2.8,0.3-5.7,1.2-8.5,0.9c-2.9-0.3-5.6-1.7-7.9,1.5
	c-0.4,0.5-1.7,0.4-2.5,0.4c-7,0.5-13.9,1.1-20.9,1.5c-2.2,0.1-4.5-0.4-7.8-0.8c1.9-0.8,2.9-1.2,3.8-1.5c-0.4-0.3-0.7-0.6-1.1-0.9
	C329.3,214.7,324.2,214.7,319.4,214.7z M479.9,534.7c-1.4,0.9-2.7,2.2-4.3,2.5c-7.6,1.7-15.3,4.1-23,4.4c-8.7,0.3-17.4,3.7-26.3,0.5
	c-6.9-2.5-14.1-3.9-21-6.4c-2.5-0.9-4.3-3.8-6.1-5.5c1.4-1.9,2.9-3.9,4.3-5.7c1.5,0.4,3.3,0.9,5.1,1.4c0.2,0.9,0.5,2.4,0.9,4.3
	c1.5-1.2,2.6-2.1,4.3-3.5c-0.4,1.8-0.6,2.9-0.9,4.2c1,0,2,0,3,0c-0.2-1.8-0.4-3.4-0.6-5c-4.7-1.8-5.1-3.6-1.7-7.4
	c3.8-4.2,7.7-8.3,12.3-11.8c-5,4.9-8.1,11-11.1,17.1c1.1,0.7,2.4,1.6,4.1,2.7c1.6-4.2,3.1-7.9,4.6-11.9c0.6,0.1,2,0.2,2.8,0.3
	c1.6,4,3,8,4.8,11.9c0.4,0.9,1.8,1.3,2.8,2c0.4-0.4,0.8-0.7,1.1-1.1c0.9,2.6,1.7,5.3,2.6,7.9c0.6,0.6,1.1,1.1,1.7,1.7
	c1.5-1.3,2.9-2.7,4.4-4c-0.4-0.5-0.7-1.1-1.1-1.6c0,1.4,0,2.7,0,4.8c1-1.4,1.6-2.3,1.8-2.6c2.3,0,4.5,0,6.9,0c1.1,0.8,2.7,2.8,4,2.7
	c4.4-0.5,9.2,2.2,13.1-2c0.8-0.8,2.6-0.8,4-0.9c2,0,4,0.2,6,0.4C479.2,534.3,479.5,534.5,479.9,534.7z M740.2,821.6
	c-0.5,4.2-2.1,8.1-0.1,12.7c1.1,2.5-1.6,6.4-1.5,9.6c0.1,4.9-4,6.8-6.3,10c-0.9,1.2-3.4,1.2-5.6,1.9c2.4-24.4-1.1-48.4-4-72.4
	c4.6,7.6,10.8,14.4,10.2,24.2c-0.1,1.2,2.5,2.5,4.8,4.5c0.5,2.3-1.9,7,2.7,9.7L740.2,821.6z M527.8,198.4c-2.6-2.1-4.1-3.9-6.8,0
	c-2.5,3.7-7.8,3-12.2,3.3c-2.1,0.2-4.2,1.1-6.3,1.6c-0.9,0.2-1.9,0.4-2.8,0.3c-1.5-0.1-2.9-0.3-5.2-0.6c-4.7-5.2-6.7-5.5-16.7-2
	c1.2-2.1,2.4-4.1,3.4-6.2c0.5-1.1,0.6-2.4,1-3.5c0.6-1.5,1.2-3.2,2.2-4.4c0.3-0.4,2.3,0.4,3.3,0.9c4.1,2.3,7.7,2.3,9.9-0.5
	c-1.8-0.1-3.4-0.2-4.9-0.3c5.7-3.9,5.8-3.4,11.1,0.8c2.2,1.8,6.5,0.9,9.4,1.2c0-2.7,0-4.2,0-5c5.9,1.7,11.3,3.2,16.7,4.8
	c0,0.4-0.1,0.7-0.1,1.1c-1.8,0.3-3.6,0.6-5.3,0.9C529.4,191.7,528.4,194.8,527.8,198.4z M729.1,659.7c0.4,11,0.9,22,1.3,33
	c0.4,12.1,0.5,24.3,1.2,36.4c0.4,6.5,2.1,13,2.6,19.5c0.2,2-1.1,4.5-2.4,6.1c-0.5,0.6-3.3-0.8-5.7-1.5c-0.1,0.2-0.7,1.4-1.7,3.3
	c-1.1-1.8-2.7-3.2-2.7-4.6c0.4-10.6,0.8-21.3,1.7-31.9c0.8-9.6,2.4-19.2,3-28.9c0.5-9,0.1-18,0.1-27.1c0-1.5,0.3-3.1,0.4-4.6
	C727.7,659.7,728.4,659.7,729.1,659.7z M874.7,516.4c-10.6-10.5-19.9-20.5-30.1-29.5c-4.6-4-10.9-6-16.4-8.9
	c-3.6-1.9-7.2-3.9-10.9-5.7c-2-1-4.2-1.8-6.1-3.2c5.5-1.3,10.4-0.7,13.5,5.9c1.3-3.3,2.2-5.6,3.4-8.8c3.8,2.1,8.4,4.4,12.7,7.1
	c6.9,4.3,13.6,8.8,20.3,13.3c1.2,0.8,2.4,2,3,3.2c3.6,7.8,7,15.7,10.4,23.6C874.7,513.8,874.5,514.5,874.7,516.4z M601.4,373.8
	c-0.2-4.6-0.7-9.2-0.6-13.9c0.1-7.3,0.1-14.6,0.9-21.9c1-9.2,2.9-18.4,4.1-27.6c1.4-11.5,2.5-23,3.8-34.5c0.1-1.4,0.3-2.8,0.5-4.2
	c0.5,0,1,0.1,1.5,0.1c-0.2,3.4-0.6,6.7-0.6,10.1c0,2.1,0.5,4.2,0.7,6.3c0.1,0.7,0.2,1.5,0.4,2.2c0.2,1.3,0.1,3,0.9,3.7
	c2.3,2.3,5,4.2,8.1,5.4c0.4,3.1,1.7,6.4,0.9,9.1c-0.8,2.8-3.3,5.5-5.7,7.2c-4.6,3.4-5.4-1.5-7.9-4.7c-1.9,14.6-5.1,28.5-0.1,42.9
	c-1.1-0.9-2.2-1.8-3.4-2.8c-0.8,7.2-1.6,14.2-2.5,21.1c-0.1,0.4-0.7,0.8-1.1,1.2C601.3,373.7,601.4,373.8,601.4,373.8z M355.5,482.1
	c1.3-0.6,2.6-1.2,3.8-1.8c0.2,0.2,0.4,0.4,0.6,0.5c-0.8,1.1-1.7,2.1-3.6,4.6c5.8-2,9.9-1.9,12.3,3.7c-0.2,0.2-1,1.3-1.9,2.3
	c0.2,0.3,0.4,0.5,0.6,0.8c2.1-1.2,4.2-2.3,5.6-3.1c1.4,3.1,2.7,6,4.3,9.5c0,0.1-0.9,1.3-2.6,3.6c3.3-1,5.2-1.5,7.1-2.1
	c-0.2,0.4-0.4,0.9-0.6,1.3c1.8,0.9,3.6,1.8,5.5,2.7c-1.3,1.1-3.2,2.7-5.4,4.7c1.5,1.3,2.8,2.5,4.2,3.6c1,0.8,2.1,1.4,3.8,2.4
	c0.1-0.1,1.1-1,2.5-2.1c1.4,2.2,2.6,4.1,3.9,6.1c1.8-1.2,3.7-2.5,5-3.4c0,2.7,0.5,5.6-0.1,8.3c-0.5,2.2-2.3,4.1-3.3,5.7
	c-6.6-5.7-12.6-10.8-18.9-16.3c0,0,0.5-0.9,1.3-2.3c-1.3,0.3-2.1,0.6-1.9,0.5c-2.1-2.1-3.8-3.7-5.4-5.6c-1.4-1.6-2.4-3.4-3.7-5.1
	c-0.7-1-1.3-2.6-2.2-2.7c-4.6-0.6-5.1-3.4-4.5-7.1c0.1-0.5-1-1.4-1.7-1.7c-2.2-1-4.4-1.9-6.9-2.9c0.9-1.8,1.6-3.1,2.3-4.4
	L355.5,482.1z M638.7,571.7c-1.3-23.9,3.6-46.5,15.9-67c9.4-15.7,22.7-28.3,35.8-40.7c0.3,0.3,0.7,0.6,1,0.9
	c-2.4,2.6-4.9,5.1-7.3,7.8c-7.5,8.8-15,17.6-22.3,26.5c-1.8,2.2-2.6,5.2-4.1,7.7c-5.4,9.3-7.7,19.7-10.5,29.9
	c-0.7,2.7-2.6,5.1-4.1,8.1c1.4-0.1,2.2-0.2,3.1-0.2c-2.6,8.9-5.7,17.6-2.3,27.6c-1.6-0.9-3-1.7-4.3-2.4
	C639.5,570.3,639.1,571.1,638.7,571.7z M682,452.4c-24.5,25.2-44.2,53.2-51.5,88.3c-0.4-0.1-0.9-0.2-1.3-0.3c0.1-1.3,0.3-2.7,0.4-4
	c0-1.4-0.1-2.8-0.2-4.2c-0.5-0.1-1-0.2-1.5-0.3c-0.4,1.8-0.9,3.6-1.2,5.5c-0.4,1.8-0.7,3.5-1.8,5.1c-1.3-9,4.6-16.2,5.8-25.9
	c0.7,2.2,0.9,3.1,1.5,5.1c1.9-4.4,3.2-8.1,5-11.6c4.5-8.9,9-17.7,13.7-26.4c0.8-1.4,2.4-2.3,3.3-3.7c0.9-1.4,4.8-2.1,1.7-4.9
	c-0.1-0.1,0.5-1.1,1-1.6c6.6-6.6,13.1-13.2,19.8-19.7c1.1-1.1,3-1.5,4.5-2.3C681.3,451.8,681.6,452.1,682,452.4z M442.7,246
	c1.8,0.2,3,0.4,4.9,0.6c-0.8-1.7-1.3-2.7-1.6-3.3c2.8-3.1,5.5-6,8.6-9.3c0.1,0.1,1,0.8,2.4,1.9c-1.4,0.6-2.3,1.1-3,1.4
	c0.4,1.5,1.7,3.6,1.2,4.2c-3.5,4.4-0.7,6.6,1.7,8.2c-0.2,2-0.7,3.5-0.5,4.8c0.5,3,1.6,5.9,2,8.9c0.2,1.5-0.5,3.2-1,4.7
	c-1,3-2.1,5.9-3.5,9.7c-0.6-0.5-2.2-1.4-3-2.7c-0.7-1.2-0.4-2.9-0.6-4.4c-0.4,0-0.9,0.1-1.3,0.1c-0.4,2.4-0.8,4.8-1.3,7.9
	c-1-1-2.4-1.6-2.4-2.3c0.2-5.6,0.6-11.1,0.9-16.7c0-0.7-0.5-1.5-0.8-2.2c-1.2-2.3-2.5-4.7,1.2-4.9
	C445.3,250.8,444.2,248.8,442.7,246z M629.6,298.7c-1-6.3-2-12.5-3-18.8c-1.4-8.2-2.8-16.4-4.1-24.6c-0.2-1,0.1-2.2,0.5-3.1
	c0.9-2.1,1.9-4.2,3.1-6.1c1.1-1.9,0.4-6.1,4-4.7c1.5,0.6,2.6,4.2,2.7,6.4c0.6,7.8,0.8,15.6,0.9,23.4c0,3.4-0.7,6.9-1.1,10.3
	c-0.7,5.7-1.4,11.5-2.2,17.2C630.1,298.8,629.9,298.8,629.6,298.7z M401.4,717.8c-3.3-4.1-7-8-9.9-12.4c-9-13.8-17.6-27.8-26.5-41.7
	c-6.5-10.2-13.1-20.3-19.7-30.5c-0.3-0.5-0.5-1-1-2.1C354.6,638.4,401.2,707.9,401.4,717.8z M468.1,461.3c-4.5,2.8-7.6,4.8-11.1,7
	c-0.1-0.3-0.6-1.2-0.7-1.4c-9.5,1.2-18.9,2.4-28.4,3.6c-0.2-1-0.5-2.2-0.9-3.9c-7.1,7.1-4.6-2.3-6.4-2.8c1.2-1.3,2.2-2.5,3.4-3.9
	c0.4,0.4,1.1,1.3,1.9,2.1c0.1-0.5,0.1-0.9,0.2-1.4c2.8-0.2,5.5-0.4,8.3-0.5c8.4-0.4,16.8-0.9,25.2-0.9
	C462.2,459.2,464.8,460.4,468.1,461.3z M740.3,821.7c0.8-2.8-1.2-6.3,2.7-8.4c0.9-0.5,0.5-3.8,0.2-5.7c-0.5-3.2-1.4-6.3-2.1-8.9
	c1.1-2.6,2.2-5,3.5-7.9c-1.5-0.1-2.4-0.2-3-0.2c-0.4-2.8-0.7-5.5-1.2-8.9c0.9,1.2,1.3,1.8,1.9,2.6c2.8-5.5,5.6-10.8,8.3-16
	c0.5,0.1,1.1,0.2,1.6,0.4c-1.5,12.1-3,24.2-4.5,36.3c-0.5,0-1,0.1-1.4,0.1c0.5,0.3,0.9,0.7,1.4,1c0.4,0.2,0.9,0.3,2,0.6
	c-1.3,2.4-2.5,4.7-3.9,7.3c0.9-0.1,1.6-0.1,2.2-0.2c-1.9,3.6-3.7,7.3-5.7,11c-0.9-1.2-1.5-2.2-2.2-3.1
	C740.2,821.6,740.3,821.7,740.3,821.7z M460.8,362.6c2.6,2.2,5.3,4.3,7.9,6.5c1,0.9,1.6,2.1,2.3,3.2c-0.4,0.3-0.8,0.5-1.1,0.8
	c-0.2-0.6-0.4-1.1-0.7-1.7c-0.2,0-0.5,0-0.7,0c0.2,1.4-0.2,3.3,0.6,4.2c7.6,9.3,7.7,9.7,0.3,19.5c-1.6-3.3-3.1-6.3-4.8-9.9
	c-6,0.7-2.6-5.7-4.7-8.5c-1.7-2.2-2.4-5.2-3.6-7.8c1.1-1.5,2.9-4,4.7-6.5C460.9,362.5,460.8,362.6,460.8,362.6z M294.9,505.5
	c2.6,4.5,5.8,8.7,7.8,13.5c2.6,6.2,4.3,12.7,6.5,19.1c0.5,1.4,1.6,3.2,2.9,3.8c4.8,2.3,1.7,4,0.6,5c1.3,2.6,2.9,4.8,3.6,7.3
	c0.7,2.6,0.7,5.4,1,8.1c-0.4,0-0.8,0-1.2,0c0.6,0.8,1.2,1.6,1.9,2.4c-0.4,0.4-0.7,0.8-1.1,1.1c1,0.2,2,0.4,3.1,0.6
	c-0.4,1.3-1,2.5-1.2,3.8c-0.3,1.5-0.2,3.1-0.3,4.5c-8.2-22.9-16.5-45.7-24.7-68.6C294.2,505.9,294.6,505.7,294.9,505.5z
	 M870.8,849.5c-1.2-0.8-2.4-1.7-3.7-2.6c-0.6,0.5-1.1,1.2-1.8,1.6c-1.5,0.8-3,1.4-4.5,2c-0.1-1.4,0-2.9-0.4-4.3
	c-0.8-2.8-1.2-6-3-8.1c-4.9-6-3.2-12.6-2.3-18.9c1.9-13.7,7.8-26.1,14-38.3c2.2-4.4,4.2-8.8,7.3-12.7c-2.9,6.3-6.1,12.5-8.5,18.9
	c-4.5,12.3-10.5,24.1-10.6,37.7c0,5.6,2.1,10.1,5.6,14.2c2.8,3.2,5.6,6.4,8.5,9.5C871.2,848.9,871,849.2,870.8,849.5z M692.4,543.6
	c-3.9-12.2,1.1-22.4,6.3-31.7s10.5-19.5,22.2-23.3c-4.2,5.5-8.8,10.7-12.5,16.4c-3.8,5.9-7.1,12.2-9.8,18.7
	C696,530.1,694.5,537,692.4,543.6z M481.4,536.9c-0.3-5,3.4-7,6.5-8.4c4.2-1.9,2,2.3,3.1,5.1c1.9-2.7,3.4-4.8,5.3-7.5
	c0.2,0.1,1.6,1.1,3.3,2.3c0.4-1.2,0.6-3.1,1.5-4.4c0.9-1.4,2.6-2.3,4.5-3.9c0.4,2.5,0.7,4,1.2,7c2.6-2.4,4.7-4.1,6.5-6.2
	c1.8-2.1,3.1-4.6,5-7.5c-0.1-0.2-0.6-1.9-1.1-3.3c2.5,0.9,4.7,1.7,6.9,2.6c0.7,0.3,1.4,0.8,2.1,1.2c-0.5,0.5-1.1,0.9-1.5,1.4
	c-5,6.4-11.5,10.7-19,13.7c-3.2,1.3-5.9,4-9.2,5C491.7,535.5,486.6,536,481.4,536.9z M626.1,616.2c-2.1,0.1-3.2,0.2-4.8,0.3
	c-1.1-17.2-2.2-35-3.4-53.3c2.3,0.7,3.6,1.1,4.7,1.4c-0.9,1.1-2.3,2.1-2.3,3.1c0,0.9,1.5,1.8,2.5,3.1c-0.7,0.4-2.1,1.2-3.5,2.1
	c5.7,3.2,6.3,6.3,5.8,12.3c-0.5,6.3,0.2,12.6-1.2,19C623.1,607.8,625.2,612.1,626.1,616.2z M656.9,563c-1-10.3,10.2-46.9,18.6-52.3
	c-5.8,18.1-11.4,35.5-17,52.9C657.9,563.4,657.4,563.2,656.9,563z M456.2,303c-0.4,1-0.9,2.3-1.4,3.4c1.9,0.3,4,0.6,6.4,1
	c-1.1,1.9-1.8,3.1-2.8,5c-1-1.5-1.7-2.7-2.6-4.1c-0.9,0.7-1.9,1.6-2.9,2.4c-0.8-1-1.6-2-2.3-2.9c-0.8,1.9-1.5,3.5-2.3,5.1
	c0.9-1.9-6.4-6.6,2.8-5.9c-2.5-3.5-4.8-6.2-6.5-9.3c-0.9-1.8-0.8-4.2-1.1-6.3c-0.3-2.8,0.9-3.7,3.6-2.8c0.1,0,0.8-1.6,1.2-2.5
	c-1.2-0.8-2.4-1.2-3-2c-0.5-0.8-0.2-2-0.3-3.1c0.8,0.1,1.6,0.3,2.5,0.4c0.6,0.1,1.3,0.4,1.7,0.2c2.8-1.5,3,0.3,2.7,2.2
	c-0.2,1.2-0.9,2.4-1.5,3.6c-2.3,4.4-0.5,7.6,3.9,7.5c-0.9,2.1-1.8,4.3-2.8,6.6C453.1,302,454.5,302.4,456.2,303z M558.4,635.1
	c-8.5,18.2-16.9,36.4-25.4,54.5c1.9-6.1,1.9-12.6,4.6-18.6c2.9-6.3,4.6-13.2,7.9-19.2c3.4-6.1,8.1-11.5,12.2-17.2
	C557.9,634.8,558.2,635,558.4,635.1z M605.4,533.6c-2.6,15.6-5.4,32.3-8,48.3C591.5,570.6,594.7,551.1,605.4,533.6z M616.9,468.6
	c4.1,4.3,2.6,9.3,2.2,14c-1.5,14.9-8.8,27.8-14.9,41.1c-1.8,4-3.8,7.8-6.3,11.6c4.1-10.8,7.6-21.8,12.5-32.2
	C615.5,492,616.8,480.6,616.9,468.6z M642.3,438.8c-2.7,20.4-4,39.4-18.2,55.6c1.1-3,1.4-5.1,2.5-6.6c7-9.6,9.5-20.5,10.1-32.1
	c0.2-4.5,0.8-8.9,1.6-13.3C638.4,441.3,640.2,440.6,642.3,438.8z M323.9,723.8c5.6,16.4,5.9,33.1,3.7,50c0,0.1-0.9,0-1.5,0
	C325.3,757.1,324.6,740.4,323.9,723.8z M355.6,481.9c-1.5,0.6-2.9,1.2-4.2,1.7c-3.1-3.8-6-7.6-9.1-11.2c-2.9-3.4-6.3-6.4-9.1-10
	c-0.9-1.1-0.5-3.3-0.7-5c0.5-0.3,1-0.6,1.5-0.9c2.6,3,5.1,5.9,7.7,8.9c-0.2,0.1-0.4,0.2-0.7,0.2c2,1.2,3.9,2.5,5.9,3.8
	c-0.5,0.9-1.1,1.8-1.7,2.8c2.1,0.9,3.8,1.6,5.6,2.3c-0.4,1.1-1,2.5-1.5,3.8c0.5,0.5,1,1,1.5,1.5c0.7-2,1.5-4,2.2-6.1
	c0.7,0.6,1.3,1.1,2,1.7c-0.4,0.7-0.7,1.4-1.2,2.3c1.2,0,2.5,0,4.1,0c-1,1.6-1.8,3-2.6,4.3C355.5,482.1,355.6,481.9,355.6,481.9z
	 M495,430.6c-0.7-0.1-1.2-2.7-2-4.4c-3.2-0.5-6.8-1.1-8.8-1.4c7.4-1.1,16.1-2.9,24.9-3.5c3.6-0.2,7.3,2.2,11,3.5
	c0,0-0.2,0.8-0.5,1.9c-1-1-1.8-1.6-2.6-2.5c-0.5,0.7-1.1,1.4-1.6,2.2C507.2,420.6,502.8,431.6,495,430.6z M65.8,825.8
	c-4.7-2.8-9.5-5.6-14.2-8.3c-2.7-1.6-5.6-3.8-3-6.7c1.2-1.3,6.1-1.5,7.4-0.2c4.2,4.1,7.4,9.2,11,13.9
	C66.6,825,66.2,825.4,65.8,825.8z M299.6,494.7c0-15.2-1.5-29.7,6.8-42.4c0.5,0.1,1,0.2,1.5,0.2
	C305.2,466.2,302.5,479.9,299.6,494.7z M186.2,670.6c-1.7,11.8-3.3,22.6-5,34.2c-4-4.3-4.6-4.4-3.5-8.7
	C179.7,687.7,180.5,678.8,186.2,670.6z M565.9,624.5c4.6-8.6,9.1-16.9,13.6-25.2c0.6,8.8,2.5,17.8-5.3,24.8c1.3-3,2.7-6,4.4-9.9
	C571.6,615.1,570.6,622.1,565.9,624.5z M270.5,288.3c3.2,4.7,9.8,6.9,9.1,14.7c-0.4,4.5,0.5,9.1,0.9,13.7c-0.4,0.1-0.9,0.3-1.3,0.4
	c-3.3-9.4-6.6-18.7-9.9-28.1C269.7,288.7,270.1,288.5,270.5,288.3z M465.4,200.6c-0.4-0.1-1.4-0.4-3-0.8c0.3,2.5,0.6,4.5,1,7.1
	c-1.4-0.2-3.4-0.6-4.9-0.8c0-2.8,0-5,0-7.8c1.2,0.1,3.1,0.3,5.9,0.5c-2.5-1.9-4.3-3.2-6.1-4.6c2.1-0.7,3.6-1.2,5.1-1.7
	c-0.1-0.4-0.2-0.9-0.4-1.3c-1.8-0.1-3.5-0.3-5.3-0.4c-0.1-0.4-0.1-0.7-0.2-1.1c1.4-0.3,2.8-0.6,4.5-0.9c-0.5-1-1-2-1.5-3
	c0.4-0.3,0.7-0.7,1.1-1c2,2,3.9,3.9,6.3,6.3c-1.5,0.7-2.5,1.2-4.4,2.2c2.1,0.7,3.4,1.1,4.5,1.4C467.3,196.4,466.4,198.3,465.4,200.6
	z M615,462.4c1.3-8-8.2-14.6-2.3-23.2C619.3,446.4,622.2,453.8,615,462.4z M437.8,521c-0.6-1.9-0.6-4.8-1.8-5.5
	c-1.6-1-4.2-0.2-6.8-0.2c-0.4-3,6-5.9,0.5-9c7.1-7.8,7.7-8.4,10.1-8.4c-2.8,2.6-5.4,5-7.9,7.5c-0.1,0.6-0.2,1.2-0.4,1.8
	c6.9-3.2,6.5,0.3,6.4,4.3c0,1.4,1.9,2.9,2.8,4.2c-0.6,1.5-1.2,3.3-1.9,5.1C438.4,520.8,438.1,520.9,437.8,521z M718.4,592.1
	c1.4,13.9,2.9,27.7,4.3,41.6c-0.2,0.1-0.4,0.2-0.6,0.3c-1.3-3.6-3.2-7.2-3.7-10.9c-0.8-5.3-0.6-10.7-0.8-16.1
	c-0.1-5.1,0-10.1,0-15.2C717.8,591.9,718.1,592,718.4,592.1z M382.5,240c-0.3-0.3-0.6-0.6-1-1c-0.7-2.4-1.3-4.7-2-7.1
	c0.6-0.1,1.2-0.1,1.8-0.2c-0.1,0.7-0.3,1.3-0.3,1.7c3.7,0.9,8.7,0.7,10.8,3.1c2.1,2.3,1.2,7.2,1.8,11.8
	C389,245,385.7,242.5,382.5,240z M760.6,853.7c-1.8,2.2-4.2,5.1-6.6,8c0.3,0.3,0.7,0.6,1,0.9c-1.5,0-3,0-4.5,0
	c0.7-2.7,1.2-5.2,2.1-7.5c1.8-4.8,9.4-7.2,14.1-4.6c-1,0.2-1.9,0.5-2.8,0.7c-0.1,0.3-0.1,0.5-0.2,0.8c1.8,0.5,3.6,1,5.4,1.5
	c0,0.2-0.1,0.4-0.1,0.6C766.3,854,763.7,853.9,760.6,853.7z M397.7,218.2c-1.7-3.8-3.5-7.8-5.4-11.8c0.4-0.2,0.8-0.4,1.2-0.6
	c2.3,2.1,4.6,4.2,8,7.2c1.6-1.1,3.9-2.7,6.2-4.3c-0.5-0.6-0.9-1.3-1.4-1.9c0.1,3.3,0.3,6.5,0.4,9.5
	C403.3,217,400.8,217.6,397.7,218.2z M306.9,450.7c-1.2-12.9-0.8-13.7,6.8-15.4C314.6,445.4,312.5,450.2,306.9,450.7z M291.6,225
	c0.3-0.1-0.7,0.4-1.1,0.1c-2.4-2.1-1.1-8.9,1.6-10.4c2.4-1.3,4.9-2.4,4.8-6c0-0.6,2.9-1.4,3.8-1.8c0,2.8,0.1,5.1,0,7.5
	c0,1.1-0.1,3-0.7,3.1c-2.5,0.9-5.4,0.9-7.8,2.1C291.4,220,291.8,222.8,291.6,225z M335.8,618.7c-0.3-0.2-1.2-1.1-2.2-1.8
	c-1.3-0.9-2.7-1.7-4.1-2.6c-0.6-0.4-1.6-0.6-1.7-1.1c-2.4-8.2-4.8-16.5-7.1-24.7c-0.2-0.7,0-1.6,0-1.7
	C325.6,597.2,330.8,608.2,335.8,618.7z M381.3,349.7c0.8-0.4,2.2-0.9,3.5-1.5c1.2-0.5,2.8-0.7,3.4-1.5c0.8-1.1,0.6-3,2.5-1.1
	c0.5-0.9,1.1-1.7,1.5-2.7c0.7-1.7,1.3-3.4,2.1-5.5c0.9,0,2.3,0,5.2,0c-1.6,2.8-2.9,4.9-4,7.1c-1.1,2.1-1.7,4.5-3.2,6.3
	c-0.7,0.9-2.8,1.5-4.1,1.2C385.9,351.6,383.6,350.5,381.3,349.7z M781.1,826.3c0.6,3.2,1.1,6.4,1.5,8.4c-5.2,3.7-10.1,7.2-15,10.7
	c-0.1-0.2-0.3-0.5-0.4-0.7c2.1-2.7,4.2-5.4,6.3-8.1c0.4,0.1,1.4,0.3,2.3,0.5c-1.9-5,1.9-7.4,3.6-10.7
	C779.9,826.4,780.5,826.3,781.1,826.3z M457.4,495.2c-0.5,1-1.5,1.2-8.7,1c1.6-2.6,3.2-5.2,4.8-7.7c5.2,5.6,5.9,5.6,11.6-0.9
	c0.4,0.3,0.8,0.6,1.2,0.9c-1.7,2.1-3.4,4.4-5.3,6.4C460.4,495.4,458.9,495,457.4,495.2z M188.6,501.9c-4.4-6.5-8.6-12.7-13.4-19.7
	c6.2,2.5,10.3,5.5,11.6,11.8c0.4,1.8,3.3,3.1,5.6,5.2C190.8,500.3,189.7,501.1,188.6,501.9z M316.7,172.9c1-2.9,2-5.8,3-8.7
	c1.5,0.7,4,1.2,4.4,2.3c0.6,2,0.7,4.7-0.3,6.4c-0.7,1.2-3.5,1.2-5.4,1.7C317.7,174,317.2,173.4,316.7,172.9z M279.7,206.3
	c-0.7-1.4-2-2.8-2-4.1c0-4.3,0.6-8.6,0.9-13.1c0.4,0.9,0.9,1.8,1.5,3.1c0.8-1.4,1.4-2.7,2.5-4.7c-0.4,6.6-0.8,12.4-1.2,18.2
	C280.9,205.9,280.3,206.1,279.7,206.3z M166.9,493.2c5.4,7.4,10.9,14.9,16.3,22.3c-0.5,0.4-1,0.8-1.5,1.1c-2.9-3.9-6.2-7.6-8.5-11.8
	C171.1,500.8,165.5,498.9,166.9,493.2z M540.7,499.4c-3.1,3.7-6.2,7.5-9.5,11.1c-0.3,0.3-2.1-0.2-2.6-0.8c-1-1.2-1.5-2.8-1.4-4.9
	c0.6,1.2,1.1,2.4,1.7,3.7C531.4,502.4,535.5,500.2,540.7,499.4z M468.7,447.8c0.9-1.6,1.5-3.9,2.9-4.5c1.8-0.9,4.3-0.6,6.5-0.8
	c0.3,0.7,0.7,1.4,1,2.1c1.1-1.5,2.3-3,3.4-4.4c0.3,0.2,0.7,0.4,1,0.7c-0.8,1.3-1.5,2.8-2.6,3.9c-1.3,1.4-2.9,2.4-4.5,3.8
	c-0.1-0.7-0.1-1.5-0.2-2.3c-0.5-0.5-1-0.9-1.5-1.4c-0.2,1.5-0.4,3.1-0.6,4.6c-0.5-0.3-1-0.6-1.5-0.9c-0.4-0.9-0.7-1.8-1.2-3.1
	c-0.7,1.2-1.2,2-1.7,2.9C469.5,448.3,469.1,448.1,468.7,447.8z M384.7,353.1c4.5,3.3,2.1,5.7,0,8c-2.3,2.5-4.6,4.9-7.4,7.7
	c0.2-1.2,0.2-2.4,0.5-3.5c0.7-3,5.3-3.9,4.3-8.2C381.8,356.2,383.7,354.6,384.7,353.1z M582.7,570.5c-0.9,8.4-1.9,16.7-2.8,25.1
	c-0.7-0.1-1.4-0.2-2.1-0.2c1.1-8.3,2.2-16.6,3.2-25C581.6,570.4,582.2,570.4,582.7,570.5z M687.2,685.7c0.7,4.4,1.7,8.8,2,13.2
	c0.1,1.2-2.1,2.4-3.2,3.7c-0.6-0.3-1.2-0.7-1.7-1c0.8-5.5,1.5-11,2.3-16.5C686.7,685.3,686.9,685.5,687.2,685.7z M566.4,191.9
	c-2.9-2.6-5.9-5.2-8.7-8c-0.4-0.4-0.1-1.5-0.1-2.9c3.7,2.8,6.9,5.2,9.9,7.7c0.7,0.6,1.1,1.6,1.7,2.4c-1,0.2-2.1,0.4-3.1,0.6
	C566.2,191.7,566.4,191.9,566.4,191.9z M479.6,329.8c-3.3-4.4-5.8-7.8-9.3-12.5c2.2,0.5,4.4,0.5,4.7,1.2
	C476.3,322,482.6,323.4,479.6,329.8z M644.8,488.5c-4.9,4-9.7,8-14.7,12.1C630.4,497.4,640.4,488,644.8,488.5z M425.4,189.9
	c-1.5,2.9-2.4,4.6-3.7,7c-0.8-0.8-2.8-1.8-2.8-3c0-2.1,1.1-4.2,1.7-6.4C422.4,188.5,424.2,189.3,425.4,189.9z M598.6,392.2
	c0.3-5.1,0.6-10.1,1.1-15.2c0.1-1.1,1.2-2.1,1.8-3.2c0,0-0.1-0.2-0.2-0.2c-0.3,5.8-0.6,11.6-1,17.3c0,0.4-1.2,0.7-1.9,1
	C598.4,392,598.6,392.2,598.6,392.2z M447,502c-2.1,1.2-3,1.7-5,2.8c1-4.3,1.8-7.9,2.6-11.5c0.4-0.1,0.9-0.1,1.3-0.2
	C446.3,496.5,446.7,499.8,447,502z M874.6,851c1.2,2.9,6.6,4.4,1.6,9.5c-1.1-3-2.2-6-3.3-9C873.5,851.4,874,851.2,874.6,851z
	 M418.9,55.6c0,1.9,0,3.9,0,6.2c-1,0.3-2.3,1.1-3.6,1.1c-0.6,0-1.8-2.1-1.5-2.6c1.2-2,2.8-3.8,4.2-5.7
	C418.3,55,418.6,55.3,418.9,55.6z M643.7,573.4c-0.9,4.7-1.7,8.4-2.6,13c-0.9-4.1-1.6-7.2-2.3-10.5
	C640,575.3,641.3,574.6,643.7,573.4z M687.6,735.6c0,5.1,0,10.2,0,15.3c-0.4,0-0.9,0-1.3,0c0-5.1,0-10.2,0-15.3
	C686.7,735.6,687.1,735.6,687.6,735.6z M434.3,206.6c1.2,1.7,2,2.8,2.6,3.7c-1.9,1.5-3.8,2.9-5.9,4.6
	C426.9,210,433,209.6,434.3,206.6z M729.4,766.2c1.5,1.3,2.9,2.6,4.4,3.9c0.1,1.8,0.2,3.9,0.4,6c-0.3,0.2-0.6,0.4-0.9,0.7
	c-1.7-3.3-3.4-6.6-5.2-9.9C728.6,766.7,729,766.4,729.4,766.2z M422.9,198.2c0.1,1.4,0.3,2.8,0.2,4.1c-0.1,1.1-0.7,2.2-1,3.4
	c-1.4-0.7-3-1.2-4-2.2c-0.3-0.3,0.7-2.4,1.5-3.3C420.3,199.3,421.5,199,422.9,198.2z M253.9,456.4c2.2-0.2,3.4-0.3,5.7-0.4
	c-0.3,2.6-0.5,4.8-0.8,7c-0.7,0.1-1.5,0.1-2.2,0.2C255.8,461,255,459,253.9,456.4z M543.4,259.8c-2.5,1-5,2-7.5,3
	c-0.3-1-0.6-2-1.3-4.2c1.8,1.4,2.4,1.9,3.5,2.7c-0.1-1.6-0.2-2.7-0.4-4.4c2,0.5,3.7,0.9,5.3,1.3
	C543.1,258.8,543.2,259.3,543.4,259.8z M626.2,317.8c0.2,5.8-2.3,8.8-7.4,9C621.2,323.9,623.7,320.9,626.2,317.8z M533.1,481.6
	c4.9-1.6,8.7,1.3,9,5.7C539.3,485.5,536.4,483.7,533.1,481.6z M626.6,503.1c-2.4,3.2-4.8,6.3-7.1,9.5
	C618.7,507.2,622.8,505.2,626.6,503.1z M566.2,191.7c1.3,1.6,2.5,3.3,3.9,5c-3.8-1.3-7.4-2.6-11-3.9c-0.1-0.3-0.2-0.6-0.2-0.9
	c2.5,0,5,0,7.5-0.1C566.4,191.9,566.2,191.7,566.2,191.7z M362.7,291.2c3.1-1.8,6.2-3.6,9.2-5.4c0.3,0.3,0.5,0.7,0.8,1
	c-2.9,2.2-5.8,4.4-8.8,6.7C363.6,292.8,363.1,292,362.7,291.2z M51.3,588.6c2.2,2.8,4.5,5.7,6.7,8.5c-0.4,0.3-0.8,0.7-1.2,1
	c-2.3-2.7-4.7-5.5-7-8.2C50.2,589.5,50.7,589.1,51.3,588.6z M441.5,212.3c1.6,1.9,2.2,2.7,2.8,3.4c-0.7,0.1-1.5,0.3-1.6,0.3
	c-0.2,1.4-0.3,2.4-0.4,3.5c-1.1-0.5-3.1-1.2-3-1.5C439.8,216.2,440.6,214.5,441.5,212.3z M503.9,724c-1.5,3.7-3.1,7.5-4.6,11.2
	c-0.5-0.2-0.9-0.4-1.4-0.5c1.4-3.7,2.9-7.5,4.3-11.2C502.8,723.6,503.3,723.8,503.9,724z"/>
</svg>
